<?xml version="1.0" encoding="UTF-8"?>
<svg width="180" height="53" viewBox="0 0 180 53" xmlns="http://www.w3.org/2000/svg">
  <!-- Triangle Play Icon -->
  <path d="M15 8L42 26.5L15 45V8Z" fill="#666666"/>
  
  <!-- Google Play Text -->
  <path d="M61.9995 30.5C59.3605 30.5 57.1945 29.584 55.6885 27.764C54.1825 25.944 53.4245 23.588 53.4245 20.764C53.4245 17.94 54.1825 15.584 55.6885 13.764C57.1945 11.944 59.3605 11.028 61.9995 11.028C63.2355 11.028 64.3835 11.272 65.3915 11.764C66.3995 12.256 67.1995 12.924 67.7915 13.764L66.0475 15.508C65.0075 14.068 63.6795 13.348 62.0475 13.348C60.3035 13.348 58.8715 13.996 57.7835 15.292C56.6955 16.588 56.1515 18.412 56.1515 20.764C56.1515 23.116 56.6955 24.94 57.7835 26.236C58.8715 27.532 60.3035 28.18 62.0475 28.18C63.6795 28.18 65.0075 27.46 66.0475 26.02L67.7915 27.764C67.1995 28.604 66.3995 29.272 65.3915 29.764C64.3835 30.256 63.2355 30.5 61.9995 30.5Z" fill="#666666"/>
  <path d="M79.5502 30.5C77.0702 30.5 75.0302 29.6 73.4302 27.8C71.8302 26 71.0302 23.632 71.0302 20.764C71.0302 17.896 71.8302 15.536 73.4302 13.736C75.0302 11.936 77.0702 11.028 79.5502 11.028C82.0302 11.028 84.0702 11.936 85.6702 13.736C87.2702 15.536 88.0702 17.896 88.0702 20.764C88.0702 23.632 87.2702 26 85.6702 27.8C84.0702 29.6 82.0302 30.5 79.5502 30.5ZM79.5502 28.18C81.2542 28.18 82.6062 27.532 83.6062 26.236C84.6062 24.94 85.1062 23.116 85.1062 20.764C85.1062 18.412 84.6062 16.588 83.6062 15.292C82.6062 13.996 81.2542 13.348 79.5502 13.348C77.8462 13.348 76.4942 13.996 75.4942 15.292C74.4942 16.588 73.9942 18.412 73.9942 20.764C73.9942 23.116 74.4942 24.94 75.4942 26.236C76.4942 27.532 77.8462 28.18 79.5502 28.18Z" fill="#666666"/>
  <path d="M99.5522 30.5C97.0722 30.5 95.0322 29.6 93.4322 27.8C91.8322 26 91.0322 23.632 91.0322 20.764C91.0322 17.896 91.8322 15.536 93.4322 13.736C95.0322 11.936 97.0722 11.028 99.5522 11.028C102.032 11.028 104.072 11.936 105.672 13.736C107.272 15.536 108.072 17.896 108.072 20.764C108.072 23.632 107.272 26 105.672 27.8C104.072 29.6 102.032 30.5 99.5522 30.5ZM99.5522 28.18C101.256 28.18 102.608 27.532 103.608 26.236C104.608 24.94 105.108 23.116 105.108 20.764C105.108 18.412 104.608 16.588 103.608 15.292C102.608 13.996 101.256 13.348 99.5522 13.348C97.8482 13.348 96.4962 13.996 95.4962 15.292C94.4962 16.588 93.9962 18.412 93.9962 20.764C93.9962 23.116 94.4962 24.94 95.4962 26.236C96.4962 27.532 97.8482 28.18 99.5522 28.18Z" fill="#666666"/>
  <path d="M120.56 11.528V30H117.952V13.848H112.704V11.528H120.56Z" fill="#666666"/>
  <path d="M127.878 22.1V30H125.27V11.528H127.878V19.324H135.47V11.528H138.078V30H135.47V22.1H127.878Z" fill="#666666"/>
  <path d="M149.828 11.528V30H147.22V11.528H149.828Z" fill="#666666"/>
  <path d="M160.65 13.848V19.324H168.686V21.6H160.65V27.68H169.642V30H158.042V11.528H169.642V13.848H160.65Z" fill="#666666"/>
</svg>