<?xml version="1.0" encoding="UTF-8"?>
<svg width="180" height="50" viewBox="0 0 180 50" xmlns="http://www.w3.org/2000/svg">
  <!-- Triangle Play Icon -->
  <path d="M21.4 9.5L39.6 26L21.4 42.5V9.5Z" fill="#00C1FF"/>
  <path d="M4.3 2L28.8 26L4.3 50V2Z" fill="#FF2E51"/>
  <path d="M4.3 2L21.4 9.5V42.5L4.3 50L4.3 2Z" fill="#FFC300"/>
  <path d="M39.6 26L28.8 26L4.3 50C6.7 50 36.3 50 39.6 50L39.6 26Z" fill="#00E15A"/>
  
  <!-- Google Play Text -->
  <path d="M68.9 31.8C66.2 31.8 64.0 30.9 62.5 29.1C61.0 27.3 60.2 24.9 60.2 22.1C60.2 19.3 61.0 16.9 62.5 15.1C64.0 13.3 66.2 12.4 68.9 12.4C70.1 12.4 71.2 12.6 72.2 13.1C73.2 13.6 74.0 14.2 74.6 15.1L72.9 16.8C71.8 15.4 70.5 14.7 68.9 14.7C67.2 14.7 65.8 15.3 64.7 16.6C63.6 17.9 63.0 19.7 63.0 22.1C63.0 24.5 63.6 26.3 64.7 27.6C65.8 28.9 67.2 29.5 68.9 29.5C70.5 29.5 71.8 28.8 72.9 27.3L74.6 29.1C74.0 29.9 73.2 30.6 72.2 31.1C71.2 31.6 70.1 31.8 68.9 31.8Z" fill="#7E7E7E"/>
  <path d="M86.5 31.8C84.0 31.8 82.0 30.9 80.4 29.1C78.8 27.3 78.0 24.9 78.0 22.1C78.0 19.2 78.8 16.9 80.4 15.1C82.0 13.3 84.0 12.4 86.5 12.4C89.0 12.4 91.0 13.3 92.6 15.1C94.2 16.9 95.0 19.3 95.0 22.1C95.0 24.9 94.2 27.3 92.6 29.1C91.0 30.9 89.0 31.8 86.5 31.8ZM86.5 29.5C88.2 29.5 89.6 28.9 90.6 27.6C91.6 26.3 92.1 24.5 92.1 22.1C92.1 19.7 91.6 17.9 90.6 16.6C89.6 15.3 88.2 14.7 86.5 14.7C84.8 14.7 83.5 15.3 82.5 16.6C81.5 17.9 81.0 19.7 81.0 22.1C81.0 24.5 81.5 26.3 82.5 27.6C83.5 28.9 84.8 29.5 86.5 29.5Z" fill="#7E7E7E"/>
  <path d="M106.5 31.8C104.0 31.8 102.0 30.9 100.4 29.1C98.8 27.3 98.0 24.9 98.0 22.1C98.0 19.2 98.8 16.9 100.4 15.1C102.0 13.3 104.0 12.4 106.5 12.4C109.0 12.4 111.0 13.3 112.6 15.1C114.2 16.9 115.0 19.3 115.0 22.1C115.0 24.9 114.2 27.3 112.6 29.1C111.0 30.9 109.0 31.8 106.5 31.8ZM106.5 29.5C108.2 29.5 109.6 28.9 110.6 27.6C111.6 26.3 112.1 24.5 112.1 22.1C112.1 19.7 111.6 17.9 110.6 16.6C109.6 15.3 108.2 14.7 106.5 14.7C104.8 14.7 103.5 15.3 102.5 16.6C101.5 17.9 101.0 19.7 101.0 22.1C101.0 24.5 101.5 26.3 102.5 27.6C103.5 28.9 104.8 29.5 106.5 29.5Z" fill="#7E7E7E"/>
  <path d="M127.5 12.9V31.4H124.9V15.2H119.7V12.9H127.5Z" fill="#7E7E7E"/>
  <path d="M135.0 23.5V31.4H132.3V12.9H135.0V20.7H142.5V12.9H145.1V31.4H142.5V23.5H135.0Z" fill="#7E7E7E"/>
  <path d="M157.0 12.9V31.4H154.3V12.9H157.0Z" fill="#7E7E7E"/>
  <path d="M167.7 15.2V20.7H175.7V23.0H167.7V29.1H176.6V31.4H165.1V12.9H176.6V15.2H167.7Z" fill="#7E7E7E"/>
</svg>